<?xml version="1.0" encoding="UTF-8" standalone="no"?>
<svg
   width="100%"
   height="100%"
   viewBox="0 0 1200 1080"
   version="1.1"
   xml:space="preserve"
   style="fill-rule:evenodd;clip-rule:evenodd;stroke-linejoin:round;stroke-miterlimit:2;"
   id="svg7"
   sodipodi:docname="aethersx2.svg"
   inkscape:version="1.3.2 (091e20ef0f, 2023-11-25, custom)"
   xmlns:inkscape="http://www.inkscape.org/namespaces/inkscape"
   xmlns:sodipodi="http://sodipodi.sourceforge.net/DTD/sodipodi-0.dtd"
   xmlns="http://www.w3.org/2000/svg"
   xmlns:svg="http://www.w3.org/2000/svg"><defs
   id="defs7" /><sodipodi:namedview
   id="namedview7"
   pagecolor="#ffffff"
   bordercolor="#000000"
   borderopacity="0.25"
   inkscape:showpageshadow="2"
   inkscape:pageopacity="0.0"
   inkscape:pagecheckerboard="0"
   inkscape:deskcolor="#d1d1d1"
   inkscape:zoom="0.82037037"
   inkscape:cx="600.3386"
   inkscape:cy="540"
   inkscape:window-width="1920"
   inkscape:window-height="1132"
   inkscape:window-x="0"
   inkscape:window-y="0"
   inkscape:window-maximized="1"
   inkscape:current-layer="svg7" />
    <g
   transform="matrix(1,0,0,1.09091,-720,207.273)"
   id="g1">
        <rect
   x="720"
   y="-190"
   width="1200"
   height="990"
   style="fill:rgb(46,46,46);"
   id="rect1" />
    </g>
    <g
   transform="matrix(0.707107,-0.707107,0.707107,0.707107,-575.938,-155.145)"
   id="g2">
        <path
   d="M-466.129,1280.63L207,607.5L207,1953.76L-466.129,1280.63Z"
   style="fill:rgb(51,51,51);"
   id="path1" />
    </g>
    <g
   id="PCSX2">
        
        <g
   transform="matrix(1.20167,0,0,1.20167,410,280.021)"
   id="g7">
            <path
   d="M0,0L316.228,0L316.228,316.228L0,316.228L0,0ZM69.045,66.999L68.879,106.596L227.267,106.596L227.101,143.531L70.044,143.531L70.21,240.361L262.039,240.195L262.039,201.097L99.824,201.097L99.824,172.98L262.538,172.98L262.538,67.166L69.045,66.999Z"
   style="fill:white;"
   id="path7" />
        </g>
    </g>
<path
   style="font-weight:bold;font-size:74.6667px;font-family:'Input Sans';-inkscape-font-specification:'Input Sans Bold';fill:#f9f9f9"
   d="m 399.42425,756.72007 -6.99152,-23.75759 -7.0594,23.75759 z m 6.51637,22.19637 -3.8691,-13.23637 h -19.34546 l -3.93697,13.23637 h -10.86061 l 17.64849,-54.30305 h 14.66183 l 17.51273,54.30305 z m 60.27634,-9.43515 q -2.44364,5.70182 -6.92364,7.94182 -4.41212,2.17212 -12.96486,2.17212 -9.16364,0 -14.39031,-4.20849 -5.15879,-4.27636 -5.15879,-11.94667 v -9.97818 q 0,-7.60243 5.22667,-11.74304 5.22667,-4.20849 14.18668,-4.20849 8.89212,0 14.05091,4.20849 5.22667,4.20849 5.22667,11.94667 v 7.19516 h -27.15153 v 2.57939 q 0,4.07273 2.03637,6.31273 2.03636,2.17212 6.72,2.17212 4.27637,0 6.31273,-1.22181 2.10424,-1.2897 3.05455,-3.8691 z m -27.8982,-15.95153 v 1.01819 h 15.61213 v -0.81455 q 0,-4.75152 -1.83273,-6.78788 -1.83272,-2.03637 -5.97333,-2.03637 -4.14061,0 -5.97334,2.03637 -1.83273,1.96848 -1.83273,6.58424 z m 63.94191,26.06547 q -7.87394,0 -12.15031,-3.80121 Q 485.834,771.9928 485.834,765.00128 V 746.674 h -8.14546 v -8.48485 h 8.14546 v -13.57576 h 11.5394 v 13.57576 h 13.98303 V 746.674 H 497.3734 v 17.03759 q 0,3.86909 1.76484,5.63394 1.76485,1.69697 4.68364,1.69697 1.35758,0 3.12243,-0.33939 1.76485,-0.3394 3.66546,-1.01819 l 1.35757,8.28122 q -1.49333,0.61091 -4.14061,1.08606 -2.57939,0.54303 -5.56606,0.54303 z m 22.26424,-0.67879 v -54.30305 h 11.5394 v 20.83879 h 2.03637 q 1.62909,-3.80121 4.88727,-5.83757 3.25818,-2.10425 7.53455,-2.10425 5.7697,0 9.23152,3.73334 3.46182,3.73333 3.46182,10.45334 v 27.2194 h -11.5394 v -25.59031 q 0,-3.32606 -1.56121,-5.02304 -1.56122,-1.76484 -4.14061,-1.76484 -2.71515,0 -5.22667,1.69697 -2.51152,1.69697 -4.68364,4.54788 v 26.13334 z m 91.70435,-9.43515 q -2.44364,5.70182 -6.92364,7.94182 -4.41212,2.17212 -12.96485,2.17212 -9.16364,0 -14.39031,-4.20849 -5.15879,-4.27636 -5.15879,-11.94667 v -9.97818 q 0,-7.60243 5.22667,-11.74304 5.22666,-4.20849 14.18667,-4.20849 8.89212,0 14.05091,4.20849 5.22667,4.20849 5.22667,11.94667 v 7.19516 h -27.15152 v 2.57939 q 0,4.07273 2.03636,6.31273 2.03636,2.17212 6.72,2.17212 4.27637,0 6.31273,-1.22181 2.10425,-1.2897 3.05455,-3.8691 z m -27.89819,-15.95153 v 1.01819 h 15.61212 v -0.81455 q 0,-4.75152 -1.83272,-6.78788 -1.83273,-2.03637 -5.97334,-2.03637 -4.14061,0 -5.97334,2.03637 -1.83272,1.96848 -1.83272,6.58424 z m 40.72735,25.38668 v -40.72729 h 11.5394 v 7.26303 h 2.03636 q 1.49334,-4.1406 4.41213,-6.04121 2.91879,-1.90061 6.38061,-1.90061 5.36242,0 8.0097,3.39394 2.71515,3.39394 2.71515,9.2994 v 5.97334 h -10.45334 v -4.14061 q 0,-2.51152 -1.15394,-4.00485 -1.08606,-1.49333 -3.46182,-1.49333 -2.17212,0 -4.48,1.62909 -2.30788,1.62909 -4.00485,4.34424 v 26.40486 z m 68.01456,0.61091 q -6.72,0 -12.76122,-2.03636 -6.04121,-2.10425 -10.45334,-6.44849 l 4.00485,-7.80606 q 4.34425,3.66545 9.2994,5.49818 5.02303,1.83273 11.40364,1.83273 5.09091,0 7.73819,-1.83273 2.64727,-1.83273 2.64727,-5.29455 0,-3.12242 -3.12242,-4.48 -3.05455,-1.42546 -13.03274,-3.12243 -9.57091,-1.49333 -13.50788,-4.81939 -3.93697,-3.39394 -3.93697,-10.11395 0,-7.26303 5.4303,-12.01455 5.43031,-4.81939 15.88365,-4.81939 6.31273,0 12.01455,2.10424 5.7697,2.03636 9.09576,5.70182 l -3.5297,7.46667 q -4.07273,-3.05455 -8.55273,-4.61576 -4.41212,-1.62909 -9.23152,-1.62909 -4.48,0 -7.0594,1.62909 -2.57939,1.56121 -2.57939,4.88728 0,3.12242 3.12242,4.48 3.19031,1.35757 13.37213,3.12242 9.43516,1.6291 13.30425,5.09092 3.86909,3.46182 3.86909,10.18182 0,8.07758 -6.24485,12.55758 -6.17697,4.48 -17.17334,4.48 z m 71.20487,-0.61091 -12.08243,-18.80243 -11.87879,18.80243 h -12.55758 l 18.53092,-27.96607 -16.83395,-26.33698 h 12.96485 l 11.26789,17.85213 10.86061,-17.85213 h 12.42182 l -17.37698,27.15152 17.17335,27.15153 z m 24.36849,0 v -11.33576 q 0,-6.72 3.12243,-10.86061 3.12242,-4.14061 9.70667,-5.49819 l 13.30425,-2.71515 q 3.93697,-0.74667 5.49818,-2.37576 1.62909,-1.69697 1.62909,-5.02303 v -1.56121 q 0,-3.8691 -2.57939,-5.49819 -2.51152,-1.62909 -7.94182,-1.62909 -5.29455,0 -7.73819,1.90061 -2.37576,1.9006 -2.78303,7.33091 l -11.5394,-0.67879 q 0.47515,-8.48485 5.56606,-12.76122 5.09091,-4.27636 16.42668,-4.27636 11.47152,0 16.76607,4.07273 5.36242,4.00485 5.36242,11.40364 v 3.1903 q 0,6.1091 -3.25818,9.50304 -3.19031,3.39394 -9.2994,4.61576 l -13.37213,2.71515 q -3.86909,0.81455 -5.63394,2.5794 -1.69697,1.76485 -1.69697,5.4303 v 2.51152 h 33.93941 v 8.96 z"
   id="text7"
   aria-label="AetherSX2" /></svg>
