<?xml version="1.0" encoding="UTF-8" standalone="no"?>
<svg
   width="100%"
   height="100%"
   viewBox="0 0 1200 1080"
   version="1.1"
   xml:space="preserve"
   style="fill-rule:evenodd;clip-rule:evenodd;stroke-linejoin:round;stroke-miterlimit:2;"
   id="svg17"
   sodipodi:docname="cloud-restore.svg"
   inkscape:version="1.3.2 (091e20ef0f, 2023-11-25, custom)"
   xmlns:inkscape="http://www.inkscape.org/namespaces/inkscape"
   xmlns:sodipodi="http://sodipodi.sourceforge.net/DTD/sodipodi-0.dtd"
   xmlns="http://www.w3.org/2000/svg"
   xmlns:svg="http://www.w3.org/2000/svg"
   xmlns:serif="http://www.serif.com/"><defs
   id="defs17" /><sodipodi:namedview
   id="namedview17"
   pagecolor="#ffffff"
   bordercolor="#000000"
   borderopacity="0.25"
   inkscape:showpageshadow="2"
   inkscape:pageopacity="0.0"
   inkscape:pagecheckerboard="0"
   inkscape:deskcolor="#d1d1d1"
   showgrid="false"
   inkscape:zoom="0.82962963"
   inkscape:cx="599.66518"
   inkscape:cy="540"
   inkscape:window-width="1920"
   inkscape:window-height="1136"
   inkscape:window-x="0"
   inkscape:window-y="0"
   inkscape:window-maximized="1"
   inkscape:current-layer="RClone-Restore" />
    <g
   transform="matrix(1,0,0,1.09091,-720,207.273)"
   id="g1">
        <rect
   x="720"
   y="-190"
   width="1200"
   height="990"
   style="fill:rgb(46,46,46);"
   id="rect1" />
    </g>
    <g
   transform="matrix(0.707107,-0.707107,0.707107,0.707107,-575.938,-155.145)"
   id="g2">
        <path
   d="M-466.129,1280.63L207,607.5L207,1953.76L-466.129,1280.63Z"
   style="fill:rgb(51,51,51);"
   id="path1" />
    </g>
    <g
   id="RClone-Restore"
   serif:id="RClone Restore">
        <g
   transform="matrix(5.74545,0,0,5.74545,783.992,628.591)"
   id="g3">
            <path
   d="M0,-26.524C-2.206,-30.345 -5.416,-33.225 -9.105,-35.023C-9.577,-32.503 -10.47,-30.019 -11.823,-27.675L-13.958,-23.97C-12.536,-23.18 -11.298,-22.017 -10.425,-20.505C-7.86,-16.063 -9.383,-10.381 -13.826,-7.816C-18.268,-5.251 -23.95,-6.773 -26.515,-11.216L-30.823,-18.666L-37.775,-18.666L-41.251,-12.646L-36.94,-5.197C-31.05,5.004 -18.007,8.499 -7.806,2.609C2.394,-3.28 5.889,-16.323 0,-26.524"
   style="fill:white;fill-rule:nonzero;"
   id="path2" />
        </g>
        <g
   transform="matrix(5.74545,0,0,5.74545,661.246,472.859)"
   id="g4">
            <path
   d="M0,-30.703C-10.201,-36.592 -23.244,-33.097 -29.133,-22.897C-31.34,-19.076 -32.228,-14.856 -31.941,-10.762C-29.523,-11.613 -26.925,-12.082 -24.218,-12.082L-19.943,-12.086C-19.97,-13.712 -19.581,-15.366 -18.709,-16.877C-16.143,-21.32 -10.462,-22.843 -6.019,-20.277C-1.576,-17.712 -0.054,-12.031 -2.619,-7.588L-6.916,-0.132L-3.441,5.889L3.511,5.888L7.806,-1.57C13.696,-11.77 10.201,-24.814 0,-30.703"
   style="fill:white;fill-rule:nonzero;"
   id="path3" />
        </g>
        <g
   transform="matrix(5.74545,0,0,5.74545,561.801,470.411)"
   id="g5">
            <path
   d="M0,23.335L-2.142,19.634C-3.537,20.471 -5.163,20.961 -6.908,20.961C-12.039,20.961 -16.198,16.802 -16.198,11.671C-16.198,6.541 -12.039,2.382 -6.908,2.382L1.697,2.376L5.174,-3.644L1.697,-9.664L-6.909,-9.656C-18.688,-9.656 -28.236,-0.107 -28.236,11.671C-28.236,23.45 -18.688,32.999 -6.909,32.999C-2.498,32.999 1.599,31.659 5,29.366C3.054,27.697 1.353,25.678 0,23.335"
   style="fill:white;fill-rule:nonzero;"
   id="path4" />
        </g>
        
    <path
   style="font-size:96px;font-family:'Sarasa Gothic SC';-inkscape-font-specification:'Sarasa Gothic SC';fill:#f9f9f9"
   d="m 469.05426,700.87929 h 64.992 v 7.296 h -64.992 z m -2.304,77.184 q -0.288,-1.344 -1.152,-3.84 -0.864,-2.496 -1.632,-4.224 1.632,-0.48 3.36,-2.304 1.824,-1.824 4.128,-4.8 1.44,-1.728 4.224,-5.856 2.88,-4.128 6.24,-9.792 3.456,-5.76 6.528,-11.904 h -29.856 v -7.392 h 85.344 v 7.392 h -45.504 q -4.8,9.024 -10.464,17.664 -5.664,8.544 -11.424,15.456 l 48.288,-3.648 q -2.976,-4.512 -6.144,-9.024 -3.072,-4.608 -5.952,-8.544 l 6.528,-3.36 q 4.128,5.472 8.448,11.616 4.32,6.048 8.064,11.904 3.744,5.856 6.144,10.368 l -6.912,4.032 q -1.152,-2.208 -2.688,-4.8 -1.44,-2.592 -3.168,-5.472 -15.84,1.344 -26.496,2.304 -10.656,0.96 -17.28,1.536 -6.528,0.576 -10.176,0.96 -3.648,0.48 -5.472,0.864 -1.824,0.384 -2.976,0.864 z m 87.744,-77.76 h 85.536 v 7.2 h -40.896 v 17.28 l 1.344,-1.536 q 4.32,2.112 9.12,4.704 4.8,2.496 9.504,5.28 4.704,2.688 8.736,5.28 4.128,2.592 7.008,4.8 l -5.088,6.528 q -3.36,-2.688 -8.448,-6.048 -5.088,-3.36 -10.848,-6.816 -5.76,-3.456 -11.328,-6.432 v 50.88 h -7.584 v -73.92 h -37.056 z m 161.376,-1.728 5.184,-3.36 q 3.36,2.592 6.72,6.048 3.456,3.36 5.28,6.048 l -5.472,3.84 q -1.632,-2.688 -4.992,-6.24 -3.36,-3.552 -6.72,-6.336 z m 9.888,27.168 6.432,1.92 q -2.592,8.928 -6.24,17.376 -3.552,8.352 -8.256,15.744 2.016,6.144 4.608,9.6 2.688,3.36 5.76,3.36 1.824,0 2.688,-3.552 0.864,-3.552 1.248,-12 1.056,1.248 2.688,2.304 1.728,0.96 2.976,1.44 -0.576,7.2 -1.728,11.328 -1.056,4.032 -3.168,5.76 -2.016,1.728 -5.376,1.728 -4.704,0 -8.352,-3.456 -3.552,-3.456 -6.24,-9.6 -3.072,3.936 -6.528,7.488 -3.456,3.552 -7.296,6.528 -0.96,-1.152 -2.4,-2.592 -1.344,-1.344 -2.688,-2.304 4.608,-3.36 8.64,-7.584 4.032,-4.32 7.584,-9.312 -2.112,-7.776 -3.552,-17.76 -1.344,-9.984 -2.112,-21.408 h -54.048 v -5.856 h 23.232 v -8.256 h -18.336 v -5.76 h 18.336 v -7.776 h 6.912 v 7.776 h 16.992 v 5.76 h -16.992 v 8.256 h 23.616 q -0.192,-5.184 -0.384,-10.56 -0.096,-5.472 -0.096,-11.04 h 7.104 q -0.096,11.328 0.288,21.6 h 25.44 v 5.856 h -25.152 q 0.576,9.024 1.536,16.8 0.96,7.776 2.304,14.112 3.36,-5.952 6.048,-12.48 2.688,-6.624 4.512,-13.44 z m -74.304,39.264 25.728,-2.112 v -9.6 h -12.576 q -6.24,0 -7.776,1.344 -0.288,-1.056 -0.96,-3.168 -0.576,-2.112 -1.248,-3.456 1.056,-0.192 2.112,-1.536 1.152,-1.344 2.304,-3.264 1.152,-1.728 3.744,-6.912 h -10.944 v -5.952 h 13.632 q 0.96,-2.208 1.824,-4.608 0.96,-2.4 1.632,-4.8 l 7.104,1.92 q -1.44,3.744 -3.168,7.488 h 28.32 v 5.952 h -31.2 q -1.536,2.976 -3.072,5.664 -1.44,2.688 -3.072,5.088 h 13.344 v -7.776 h 6.72 v 7.776 h 15.264 v 6.24 h -15.264 v 9.024 l 17.472,-1.632 v 5.952 l -17.472,1.824 v 12.672 h -6.72 v -12 l -24.96,2.592 z"
   id="text17"
   aria-label="云下载" /></g>
</svg>
