<?xml version="1.0" encoding="UTF-8" standalone="no"?>
<svg
   width="100%"
   height="100%"
   viewBox="0 0 1200 1080"
   version="1.1"
   xml:space="preserve"
   style="fill-rule:evenodd;clip-rule:evenodd;stroke-linejoin:round;stroke-miterlimit:2;"
   id="svg17"
   sodipodi:docname="cloud-backup.svg"
   inkscape:version="1.3.2 (091e20ef0f, 2023-11-25, custom)"
   xmlns:inkscape="http://www.inkscape.org/namespaces/inkscape"
   xmlns:sodipodi="http://sodipodi.sourceforge.net/DTD/sodipodi-0.dtd"
   xmlns="http://www.w3.org/2000/svg"
   xmlns:svg="http://www.w3.org/2000/svg"
   xmlns:serif="http://www.serif.com/"><defs
   id="defs17" /><sodipodi:namedview
   id="namedview17"
   pagecolor="#ffffff"
   bordercolor="#000000"
   borderopacity="0.25"
   inkscape:showpageshadow="2"
   inkscape:pageopacity="0.0"
   inkscape:pagecheckerboard="0"
   inkscape:deskcolor="#d1d1d1"
   showgrid="false"
   inkscape:zoom="0.82962963"
   inkscape:cx="599.66518"
   inkscape:cy="540"
   inkscape:window-width="1920"
   inkscape:window-height="1136"
   inkscape:window-x="0"
   inkscape:window-y="0"
   inkscape:window-maximized="1"
   inkscape:current-layer="svg17" />
    <g
   transform="matrix(1,0,0,1.09091,-720,207.273)"
   id="g1">
        <rect
   x="720"
   y="-190"
   width="1200"
   height="990"
   style="fill:rgb(46,46,46);"
   id="rect1" />
    </g>
    <g
   transform="matrix(0.707107,-0.707107,0.707107,0.707107,-575.938,-155.145)"
   id="g2">
        <path
   d="M-466.129,1280.63L207,607.5L207,1953.76L-466.129,1280.63Z"
   style="fill:rgb(51,51,51);"
   id="path1" />
    </g>
    <g
   id="RClone-Restore"
   serif:id="RClone Restore">
        <g
   transform="matrix(5.74545,0,0,5.74545,783.992,628.591)"
   id="g3">
            <path
   d="M0,-26.524C-2.206,-30.345 -5.416,-33.225 -9.105,-35.023C-9.577,-32.503 -10.47,-30.019 -11.823,-27.675L-13.958,-23.97C-12.536,-23.18 -11.298,-22.017 -10.425,-20.505C-7.86,-16.063 -9.383,-10.381 -13.826,-7.816C-18.268,-5.251 -23.95,-6.773 -26.515,-11.216L-30.823,-18.666L-37.775,-18.666L-41.251,-12.646L-36.94,-5.197C-31.05,5.004 -18.007,8.499 -7.806,2.609C2.394,-3.28 5.889,-16.323 0,-26.524"
   style="fill:white;fill-rule:nonzero;"
   id="path2" />
        </g>
        <g
   transform="matrix(5.74545,0,0,5.74545,661.246,472.859)"
   id="g4">
            <path
   d="M0,-30.703C-10.201,-36.592 -23.244,-33.097 -29.133,-22.897C-31.34,-19.076 -32.228,-14.856 -31.941,-10.762C-29.523,-11.613 -26.925,-12.082 -24.218,-12.082L-19.943,-12.086C-19.97,-13.712 -19.581,-15.366 -18.709,-16.877C-16.143,-21.32 -10.462,-22.843 -6.019,-20.277C-1.576,-17.712 -0.054,-12.031 -2.619,-7.588L-6.916,-0.132L-3.441,5.889L3.511,5.888L7.806,-1.57C13.696,-11.77 10.201,-24.814 0,-30.703"
   style="fill:white;fill-rule:nonzero;"
   id="path3" />
        </g>
        <g
   transform="matrix(5.74545,0,0,5.74545,561.801,470.411)"
   id="g5">
            <path
   d="M0,23.335L-2.142,19.634C-3.537,20.471 -5.163,20.961 -6.908,20.961C-12.039,20.961 -16.198,16.802 -16.198,11.671C-16.198,6.541 -12.039,2.382 -6.908,2.382L1.697,2.376L5.174,-3.644L1.697,-9.664L-6.909,-9.656C-18.688,-9.656 -28.236,-0.107 -28.236,11.671C-28.236,23.45 -18.688,32.999 -6.909,32.999C-2.498,32.999 1.599,31.659 5,29.366C3.054,27.697 1.353,25.678 0,23.335"
   style="fill:white;fill-rule:nonzero;"
   id="path4" />
        </g>
        
    <path
   style="font-size:96px;font-family:'Sarasa Gothic SC';-inkscape-font-specification:'Sarasa Gothic SC';fill:#f9f9f9"
   d="m 469.05426,700.87929 h 64.992 v 7.296 h -64.992 z m -2.304,77.184 q -0.288,-1.344 -1.152,-3.84 -0.864,-2.496 -1.632,-4.224 1.632,-0.48 3.36,-2.304 1.824,-1.824 4.128,-4.8 1.44,-1.728 4.224,-5.856 2.88,-4.128 6.24,-9.792 3.456,-5.76 6.528,-11.904 h -29.856 v -7.392 h 85.344 v 7.392 h -45.504 q -4.8,9.024 -10.464,17.664 -5.664,8.544 -11.424,15.456 l 48.288,-3.648 q -2.976,-4.512 -6.144,-9.024 -3.072,-4.608 -5.952,-8.544 l 6.528,-3.36 q 4.128,5.472 8.448,11.616 4.32,6.048 8.064,11.904 3.744,5.856 6.144,10.368 l -6.912,4.032 q -1.152,-2.208 -2.688,-4.8 -1.44,-2.592 -3.168,-5.472 -15.84,1.344 -26.496,2.304 -10.656,0.96 -17.28,1.536 -6.528,0.576 -10.176,0.96 -3.648,0.48 -5.472,0.864 -1.824,0.384 -2.976,0.864 z m 148.224,-70.272 h -33.12 l -1.056,1.056 q 3.072,3.36 7.2,6.336 4.128,2.88 9.024,5.376 5.376,-2.784 9.888,-5.952 4.608,-3.168 8.064,-6.816 z m -30.336,-14.88 7.776,1.536 q -1.056,1.824 -2.304,3.552 -1.248,1.728 -2.592,3.456 h 33.312 l 1.248,-0.384 4.704,2.976 q -3.84,5.952 -9.6,10.944 -5.664,4.992 -12.48,9.024 8.352,3.264 18.048,5.472 9.696,2.208 19.872,3.36 -1.248,1.248 -2.496,3.168 -1.248,1.92 -2.016,3.456 -11.04,-1.44 -21.504,-4.224 -10.464,-2.88 -19.488,-7.2 -9.792,4.704 -20.544,7.872 -10.752,3.168 -21.216,4.896 -0.384,-1.536 -1.344,-3.552 -0.96,-2.016 -1.92,-3.264 9.408,-1.344 19.008,-3.84 9.696,-2.496 18.432,-6.144 -7.872,-4.608 -13.824,-10.656 -3.072,2.496 -6.624,4.896 -3.552,2.304 -7.584,4.416 -0.864,-1.344 -2.304,-2.88 -1.44,-1.536 -2.688,-2.4 10.464,-4.896 17.472,-11.52 7.104,-6.72 10.656,-12.96 z m -11.616,68.544 v 10.656 h 20.352 v -10.656 z m 0,-5.856 h 20.352 v -9.696 h -20.352 z m 47.808,5.856 h -20.064 v 10.656 h 20.064 z m 0,-5.856 v -9.696 h -20.064 v 9.696 z m -55.296,-16.032 h 63.072 v 41.76 h -7.776 v -2.88 h -47.808 v 3.072 h -7.488 z m 152.064,-44.448 q 2.016,8.448 4.8,14.88 2.784,6.432 6.72,11.424 4.032,4.992 9.408,9.312 -1.344,1.056 -2.784,2.784 -1.44,1.632 -2.208,3.264 -5.856,-5.088 -10.08,-10.848 -4.224,-5.76 -7.2,-12.96 -2.976,-7.296 -5.184,-16.608 z m -47.52,-1.536 6.816,2.016 q -3.744,10.56 -9.024,20.64 v 65.28 h -7.2 v -53.184 q -3.84,5.856 -8.064,10.656 -0.576,-1.344 -1.92,-3.552 -1.248,-2.304 -2.304,-3.552 4.416,-4.704 8.448,-10.848 4.032,-6.144 7.392,-13.152 3.456,-7.104 5.856,-14.304 z m 23.424,2.112 7.104,1.536 q -2.688,9.792 -7.008,18.336 -4.32,8.544 -9.984,15.264 h 43.392 q 0,0 0,1.248 0,1.248 -0.096,2.016 -0.672,14.784 -1.44,23.712 -0.672,8.928 -1.728,13.536 -0.96,4.512 -2.496,6.24 -1.248,1.632 -2.784,2.304 -1.536,0.672 -3.552,0.864 -1.824,0.096 -4.896,0.096 -2.976,0 -6.336,-0.096 -0.096,-1.632 -0.672,-3.552 -0.576,-1.824 -1.344,-3.168 3.264,0.288 6.048,0.384 2.784,0.096 4.032,0.096 1.248,0 1.92,-0.288 0.768,-0.192 1.44,-1.056 1.056,-1.152 1.824,-4.896 0.864,-3.744 1.536,-11.136 0.672,-7.488 1.248,-19.584 h -17.184 q -1.824,15.936 -7.2,26.784 -5.376,10.752 -16.128,17.28 -0.672,-1.056 -2.304,-2.688 -1.536,-1.632 -2.688,-2.592 10.08,-5.472 14.88,-15.072 4.8,-9.696 6.336,-23.712 h -12.288 v -6.144 q -2.88,3.456 -6.24,6.24 -0.672,-1.248 -2.112,-3.264 -1.44,-2.016 -2.496,-3.072 7.584,-5.952 12.96,-15.168 5.376,-9.312 8.256,-20.448 z"
   id="text17"
   aria-label="云备份" /></g>
</svg>
